<svg xmlns="http://www.w3.org/2000/svg" viewBox="0 0 158.63 158.74"><defs><style>.cls-1{fill:#fff;}</style></defs><g id="레이어_2" data-name="레이어 2"><g id="레이어_1-2" data-name="레이어 1"><path class="cls-1" d="M85,77.27a44.83,44.83,0,0,0-6.83-3.91c-.42-.19-.67-.18-.94.22a48.37,48.37,0,0,0-3.93,6.94c-.19.45-.08.65.3.9a43.23,43.23,0,0,0,5,3c.65.3,1.26.69,2,.93.36.12.56.11.78-.22a46.11,46.11,0,0,0,4-7C85.5,77.64,85.32,77.49,85,77.27Z"/><path class="cls-1" d="M156.7,71.77c-1.65-3.22-3.48-6.35-5.4-9.42q-3.21-5.12-6.73-10c-2-2.81-4.17-5.53-6.32-8.23-1.36-1.71-2.84-3.32-4.27-5-1.62-1.87-3.37-3.61-5-5.48-1.37-1.57-3-3-4.46-4.41-2.77-2.67-5.64-5.23-8.58-7.72-2.17-1.83-4.43-3.56-6.68-5.3-2.6-2-5.3-3.85-8-5.67C98.88,9,96.47,7.45,94,6s-4.78-2.83-7.26-4.08A9,9,0,0,0,83.32.56c-.36,0-.59-.17-.61-.56H77.06a.34.34,0,0,1-.57,0h-.37c-.08.46-.49.46-.8.53-2.84.7-5.25,2.32-7.74,3.72-2.94,1.66-5.8,3.44-8.65,5.24-1.48.93-2.9,2-4.34,3q-4.25,3-8.36,6.19C43,21.2,39.85,24,36.79,26.77c-2.23,2.05-4.45,4.11-6.52,6.31-1.8,1.91-3.61,3.8-5.35,5.77-2.25,2.53-4.41,5.13-6.51,7.77-1.77,2.22-3.5,4.49-5.13,6.81-1.89,2.68-3.69,5.42-5.45,8.19-1.62,2.53-3.12,5.12-4.57,7.76C2,71.68.63,73.93.23,76.57a15,15,0,0,0,1.35,9.5c1.47,2.79,2.91,5.6,4.57,8.27s3.34,5.37,5.13,8c2.34,3.4,4.73,6.76,7.3,10q2.82,3.56,5.84,7c1.74,2,3.49,3.91,5.31,5.79q4.64,4.79,9.64,9.17c2.8,2.46,5.67,4.81,8.59,7.1,2.36,1.85,4.77,3.62,7.29,5.27,1.88,1.23,3.68,2.58,5.59,3.77a124.45,124.45,0,0,0,12.62,7.16,8.71,8.71,0,0,0,2.24.7c.3.05.72.06.79.52H82c0-.43.44-.45.71-.5,2.75-.47,5.07-1.92,7.43-3.25,4.16-2.35,8.23-4.84,12.18-7.54S110,142,113.63,139a166,166,0,0,0,15.88-14.58q3-3.15,5.85-6.48c1.79-2.09,3.59-4.16,5.27-6.34,2.76-3.6,5.42-7.26,7.93-11.05,2.67-4,5.1-8.22,7.5-12.43a17.33,17.33,0,0,0,2.55-9.65A16.26,16.26,0,0,0,156.7,71.77Zm-18.34,32.82c-.16.34-.51.08-.76,0A67.06,67.06,0,0,0,120,105c-3.17.4-6.33.92-9.46,1.56a1,1,0,0,1-1.32-.62,92.65,92.65,0,0,0-17.31-23c-1.45-1.38-3-2.66-4.55-3.92a2.11,2.11,0,0,0-.36-.13c.2,1.45.39,2.84.59,4.22,1,7.51,2.07,15,3.14,22.53a1.5,1.5,0,0,1-.57,1.53q-12.42,10.79-24.81,21.6L54.71,138l-.62.51c-.31-.13-.18-.35-.16-.5,1-6.39.42-12.75-.45-19.09-.38-2.76-.85-5.51-1.39-8.25a1.13,1.13,0,0,1,.7-1.45,95.6,95.6,0,0,0,20.32-14.6,64.89,64.89,0,0,0,6.76-7.48,14.47,14.47,0,0,0-3,.32Q64.91,89.06,53,90.74a1.28,1.28,0,0,1-1.33-.41q-15.48-17.81-31-35.57c-.18-.21-.34-.44-.49-.63.08-.27.24-.23.39-.2a59.58,59.58,0,0,0,15.84,0A113.7,113.7,0,0,0,48,52.11a1.06,1.06,0,0,1,1.38.63A98.77,98.77,0,0,0,61.89,70.79,69.79,69.79,0,0,0,71,79.47c.14.12.3.21.53.37a4.77,4.77,0,0,0-.14-1.67q-1.71-12.39-3.45-24.76a1.94,1.94,0,0,1,.7-2Q86.41,36,104.13,20.48c.13-.11.28-.21.47-.36a3.65,3.65,0,0,1-.09,1.63,72.46,72.46,0,0,0,.7,18.72c.37,2.54.82,5.07,1.31,7.59a1.07,1.07,0,0,1-.66,1.37A95.24,95.24,0,0,0,84.33,65.21a65.4,65.4,0,0,0-5.66,6.44l3.91-.51q11.53-1.61,23.08-3.24a1.35,1.35,0,0,1,1.36.52Q122.47,86.2,138,103.93C138.12,104.12,138.49,104.3,138.36,104.59Z"/></g></g></svg>