<svg _ngcontent-vbi-c50="" version="1.1" id="Green" xmlns="http://www.w3.org/2000/svg" xmlns:xlink="http://www.w3.org/1999/xlink" x="0px" y="0px" viewBox="0 0 1777 1962" xml:space="preserve" class="logo" style="enable-background: new 0 0 1777 1962;"><style _ngcontent-vbi-c50="" type="text/css"> .st0{fill:#1bb14d !important;} </style><path _ngcontent-vbi-c50="" id="Logo_green" d="M912.48,83.31c5.61,0,10.95,0.44,15.87,1.3c10.47,1.83,24.78,6.27,33.46,17.04
								c5.29,6.56,9.45,15.81,11.41,25.38c1.28,6.25,1.77,18.13-0.19,29.44c-3.46,20.01-17.14,45.49-27.04,54.9
								c-2.85,2.71-2.91,2.72-5.97,3.33c-4.07,0.81-5.29,1.05-20.14,2.54c-23.85,2.39-33.65,3.8-52.59,8.53
								c-67.01,16.73-129.34,57.79-175.51,115.62c-48.7,61.01-78.9,137.4-89.73,227.02c-2.62,21.65-3.9,53.44-3.3,77.98
								c-13.35-36.77-22.04-75.46-25.63-114.6c-2.61-28.55-2.45-59.81,0.47-88.01c8.95-86.53,45.4-167.29,105.42-233.55
								c7.03-7.76,25.18-25.73,32.37-32.06c34.26-30.13,70.09-53.26,109.54-70.71C857.13,91.43,887.93,83.31,912.48,83.31 M1360.05,407.61
								c16.69,0,33.73,1.04,50.66,3.09c90.79,10.99,181.38,53.92,242.32,114.84c10.72,10.72,15.4,16.34,20.74,23.56
								c11.54,15.58,18.36,31.79,19.72,46.88c1.48,16.41-5.74,31.11-21.44,43.7c-7.17,5.75-21.17,13-38.91,16.06
								c-7.81,1.35-7.81,1.35-20.51,1.35l-1.74,0c-3.55,0-11.86-0.01-13.33-0.09l-1.23-0.18c-5.26-0.83-11.95-2.24-13.9-4.27
								c-2.03-2.11-3.78-3.94-13.42-18.06c-16.6-24.32-30.54-42.22-52.63-61.72c-51.55-45.51-116.27-73.9-187.14-82.12
								c-13.88-1.61-28.94-2.43-44.77-2.43c-15.43,0-30.69,0.77-45.35,2.3c-67.35,7.02-138.77,31.36-200.76,67.92
								c52.45-59.38,120.84-105.27,193.19-129.53c13.46-4.51,20.84-6.69,32.93-9.69C1295.46,411.52,1327.62,407.61,1360.05,407.61
								M169.81,477.78c2.71,0,4.66,0.06,5.74,0.11c14.06,2.35,25.49,7.61,36.85,16.92c18.9,15.49,33.65,42.14,35.74,54.01
								c0,0.89-0.05,2.11-0.12,3.03c-0.76,2.91-2.01,6.23-8.33,20.33c-7.64,17.03-11.55,26.37-16.04,40.2
								c-14.03,43.27-17.98,93.53-11.1,141.54c8.39,58.62,31.65,114.45,69.11,165.94c27.18,37.36,62.86,73.03,103.18,103.15
								c21.29,15.91,43.29,29.92,65.83,41.98c-67.67-12.05-133.27-39.68-187.99-79.6c-27.56-20.11-54.11-44.97-74.75-70.01
								c-49.99-60.66-82.7-138.21-92.11-218.38c-2.47-21-3.51-51.7-2.43-71.42c1.53-27.94,5.61-54.55,11.8-76.95
								c9.19-33.29,24.88-57.01,44.18-66.79c4.05-2.05,6.97-3.05,11.38-3.82C162.31,477.92,165.62,477.78,169.81,477.78 M161.98,477.82
								h0.07H161.98 M1331.32,901.89c4.6,0.94,9.25,1.96,13.96,3.06c112.46,26.33,210.05,93.57,267.76,184.5
								c37.01,58.32,58.89,124.03,65.06,195.32c0.87,10,1.28,45.06,0.66,55.99c-2.53,44.55-11.48,85.48-24.57,112.29
								c-10.7,21.91-26.1,37.11-42.26,41.7c-0.9,0.26-1.68,0.49-2.44,0.67c-0.9,0.06-3.25,0.15-9.04,0.15c-0.95,0-1.83,0-2.64,0
								c-2.27,0-4.01-0.01-5.46-0.07c-22.19-4.04-41.28-18.12-56.76-41.88c-6.9-10.6-11.47-20.28-13.6-28.82
								c-0.06-1.63-0.07-3.75-0.04-5.54c1-2.9,3.33-8.43,9.71-21.71c14.88-31.01,22.37-53.19,27.65-81.84c4.07-22.09,4.79-34.27,4.78-57.53
								c-0.01-24.28-0.94-36.05-4.53-57.26c-16.56-97.91-77.58-190.97-171.81-262.02C1369.55,925.2,1350.68,912.83,1331.32,901.89
								M168.57,1316.74c12.3,0,20.27,2.05,23.78,3.57c0.37,0.34,0.88,0.84,1.58,1.54c2.86,2.87,4.17,4.17,16.69,21.59
								c9.79,13.61,16.07,21.39,25.85,32.02c45.19,49.11,111.94,84.58,183.13,97.3c21.06,3.77,43.47,5.67,66.59,5.67
								c15.81,0,31.75-0.91,47.38-2.7c69.7-7.97,143.01-34.3,205.89-73.4c-16.25,19.33-34.18,37.46-53.29,53.81
								c-63.69,54.47-138.82,89.27-217.25,100.64c-18.5,2.68-37.66,4.04-56.94,4.04c-37.86,0-75.66-5.11-112.36-15.17
								c-58.62-16.08-113.5-44.56-158.73-82.34c-27.38-22.87-44-43.23-52.29-64.06c-4.74-11.9-6.21-23.36-4.23-33.13
								c1.5-7.45,7.16-18.68,16.4-26.99c9.56-8.59,26.3-20.24,61.15-22.21C164.15,1316.8,166.37,1316.74,168.57,1316.74 M1180.18,1327.59
								c10.52,31.12,17.62,63.18,21.2,95.83c3.08,28.11,3.48,63.41,1.01,89.92c-6.29,67.72-26.39,127.45-61.45,182.6
								c-49.48,77.82-123.39,138.16-208.13,169.9c-23.44,8.78-41.11,13.5-60.62,16.16c-4.06,0.28-15.62,0.67-23.66,0.67
								c-0.34,0-0.66,0-0.96,0c-7.16-0.87-10.17-1.43-12.16-1.87c-25.99-5.7-34.23-19.14-38.86-31.54c-7.61-20.38-4.45-45.6,8.92-71.02
								c9.57-18.2,18.14-25.54,20.17-26.63c1.59-0.61,6.2-1.53,27.92-3.15c43.44-3.26,77.91-12.45,115.23-30.74
								c81.4-39.89,143.45-111.19,179.45-206.18c10.76-28.41,21.26-68.48,25.52-97.45c2.07-14.05,2.71-19.1,3.83-30.03
								C1179.47,1365.43,1180.34,1346.44,1180.18,1327.59 M1522.07,1416.6h0.07H1522.07 M912.48,0c-36.58,0-78.04,10.36-125.26,31.25
								c-46.95,20.77-90.44,48.8-130.85,84.35c-9.55,8.39-29.92,28.55-39.1,38.69c-72.17,79.67-115.74,176.39-126.55,280.91
								c-3.47,33.55-3.67,70.27-0.57,104.18c7.08,77.4,31.49,154.3,70.05,220.66c54.93,94.54,139.83,173.15,239.09,221.36
								c17.91,8.7,18.24,8.87,18.43,9.92c0.22,1.19-3.28,3.49-13.51,8.89c-30.65,16.18-60.81,26.43-93.25,31.7
								c-16.68,2.71-33.55,4.04-50.53,4.04c-77.06,0-156.01-27.57-225.73-79.66c-33.76-25.23-63.31-54.69-85.68-85.43
								c-29.36-40.35-47.57-83.76-54.01-128.73c-5.11-35.67-2.31-72.62,7.88-104.03c3.08-9.51,5.53-15.6,12.8-31.8
								c8.99-20.04,11.31-26.27,13.85-37.14c1.8-7.72,2.45-21.43,1.39-29.79c-4.48-35.61-32.12-81.44-65.73-108.98
								c-23.4-19.18-49.25-30.69-78.91-35.13c-3.51-0.53-9.86-0.78-16.5-0.78c-8,0-16.43,0.37-20.85,1.07c-13.69,2.17-25.08,5.83-37.25,12
								c-40.91,20.73-71.16,62.15-86.84,118.93c-7.76,28.11-12.82,60.71-14.68,94.57c-1.35,24.56-0.16,59.84,2.88,85.7
								c11.3,96.24,50.29,188.5,110.56,261.64c25.14,30.51,56.65,60.06,89.94,84.34c77.51,56.54,172.33,91.99,268.7,100.46
								c14.88,1.31,30.43,1.96,46.11,1.96c20.6,0,41.4-1.12,61.16-3.35c59.77-6.74,118.84-23.45,174.77-49.43
								c30.74-14.28,59.43-31.01,90.33-52.68c1.85-1.3,3.06-2.14,3.84-2.14c1.46,0,1.47,2.92,1.46,11.25
								c-0.01,49.22-14.36,101.49-40.18,146.42c-24.36,42.39-57.89,79.33-99.66,109.78c-56.86,41.45-129.58,70.38-196.02,77.98
								c-12.58,1.44-25.33,2.15-37.91,2.15c-18.01,0-35.67-1.47-51.93-4.37c-53.48-9.56-103.46-35.82-136.49-71.71
								c-7.42-8.06-11.71-13.39-19.52-24.25c-13.81-19.2-17.89-24.31-25.38-31.81c-8.25-8.26-14.18-12.66-23.04-17.1
								c-16.24-8.14-37.62-12.45-61.28-12.45c-3.74,0-7.53,0.11-11.37,0.32c-45.56,2.58-82.67,16.95-112.13,43.42
								c-21.43,19.26-37.03,45.93-42.38,72.48c-5.19,25.71-2.26,53.41,8.5,80.43c13.63,34.23,37.82,65.04,76.28,97.17
								c54.68,45.68,119.6,79.4,190.1,98.75c43.91,12.05,89.45,18.14,134.4,18.14c23.23,0,46.3-1.63,68.9-4.9
								c93.53-13.56,184.19-55.41,259.45-119.78c43.05-36.82,81.34-81.73,110.2-129.26c41.56-68.45,68.58-148.97,77.07-229.68
								c3.8-36.13,4.11-76.15,0.85-111.16c-1.34-14.42-1.35-14.86-0.14-15.32c0.06-0.02,0.14-0.04,0.24-0.04
								c3.25,0,25.29,13.44,40.65,24.86c35.96,26.74,64.44,59.92,86.33,100.56c19.64,36.47,32.96,78.91,38.34,122.12
								c3.73,29.95,4.02,62.87,0.83,94.07c-0.98,9.63-1.49,13.58-3.37,26.36c-3.4,23.07-12.36,57.26-21,80.06
								c-28.47,75.16-75.88,130.35-138.2,160.89c-27.75,13.6-51.96,20.01-84.8,22.48c-29.73,2.23-39.62,3.86-51.66,8.5
								c-24.03,9.27-46.37,32.18-63.94,65.59c-24.58,46.75-29.27,96.01-13.22,138.96c16.47,44.09,50.9,73.2,99.06,83.76
								c6.17,1.35,12.77,2.37,23.31,3.59h0c1.27,0.15,4.07,0.21,7.66,0.21c10.69,0,28.36-0.57,33.34-1.23c26.29-3.46,50.37-9.74,80.17-20.9
								c101.13-37.88,190.35-110.63,249.22-203.23c41.99-66.05,66.62-139.02,74.1-219.59c3-32.27,2.56-72.82-1.15-106.7
								c-6.8-62.07-24.4-122.49-52.2-179.15c-48.83-99.55-131.93-185.98-231.37-240.65c-9.04-4.97-31.51-16.24-40.01-20.06
								c-6.83-3.07-6.85-3.63-0.28-7.51c33.39-19.74,74.94-33.88,113.58-38.65c13.4-1.65,21.38-2.23,34.38-2.23
								c3.14,0,6.57,0.03,10.43,0.09c18.96,0.3,26.62,0.88,43.08,3.26c60.26,8.73,121.96,35.4,175.79,75.99
								c77.33,58.3,126.8,132.39,139.82,209.39c2.8,16.58,3.35,23.67,3.36,43.39c0.01,19.89-0.56,26.99-3.4,42.4
								c-3.91,21.2-9.17,36.6-20.83,60.89c-10.86,22.62-14.31,31.47-16.82,43c-1.46,6.73-1.47,26.64-0.02,33.98
								c3.93,19.83,12.52,39.8,26.08,60.61c28.62,43.93,67.85,71.07,113.87,78.76c4.86,0.81,9.09,1.03,20.79,1.03c0.18,0,0.36,0,0.55,0
								c16.42-0.01,22-0.67,33.69-3.99c39.3-11.16,73.09-41.7,94.37-85.3c18.11-37.11,29.69-87.83,32.88-144.12
								c0.85-15.09,0.38-53.85-0.83-67.89c-7.33-84.82-33.43-163-77.71-232.79c-69.18-109.02-185.8-189.78-319.11-220.98
								c-40.73-9.54-78.54-13.94-120.26-13.94c-3.23,0-6.48,0.03-9.75,0.08c-21.31,0.34-27.8,0.7-47,2.63
								c-95.28,9.56-192.08,46.05-269.03,101.43c-3.78,2.72-5.99,4.44-7.27,4.44c-1.94,0-1.68-4.02-1.41-14.62
								c0.66-25.62,4.13-49.67,10.53-73.01c19.85-72.37,67.47-137.34,135.11-184.33c56.34-39.14,128.2-66.43,192.55-73.13
								c11.85-1.24,24.42-1.85,36.71-1.85c12.35,0,24.42,0.62,35.17,1.87c53.9,6.25,102.86,27.63,141.6,61.82
								c14.13,12.47,23.51,23.6,38.96,46.23c10.64,15.58,15.42,21.8,22.16,28.82c15.14,15.75,33.77,24.56,61.04,28.85
								c7.2,1.13,10.13,1.27,27.44,1.28c0.62,0,1.22,0,1.81,0c18.16,0,21.42-0.27,34.7-2.57c28.9-5,56.66-16.97,76.85-33.17
								c37.6-30.16,56.3-71.68,52.3-116.16c-2.75-30.58-14.94-60.91-35.76-89.01c-8.6-11.61-16.27-20.37-28.78-32.88
								c-74.51-74.49-181.32-125.34-291.22-138.63c-20.34-2.46-40.58-3.69-60.67-3.69c-39.27,0-77.97,4.7-115.67,14.07
								c-14.23,3.54-23.79,6.35-39.31,11.55c-88.97,29.83-170.84,85.42-233.95,158.87c-72.75,84.66-117.77,192.22-128.83,307.74
								c-3.04,31.74-3.26,67.69-0.6,98.24c0.41,4.77,0.62,9,0.47,9.41c-0.18,0.47-0.51,0.72-1.11,0.72c-1.96,0-6.71-2.82-17.87-10.26
								c-43.88-29.27-78.2-68.06-102.47-115.8c-22.45-44.17-35.01-91.69-38.27-144.89c-1.24-20.18-0.17-54.92,2.33-75.54
								c8.92-73.78,33.37-136.48,72.14-185.05c34.57-43.3,81.56-74.53,130.57-86.76c13.68-3.41,19.46-4.33,40.72-6.46
								c16.03-1.61,20.22-2.16,28.08-3.72c18.68-3.71,32.9-11.15,47.1-24.63c23.98-22.78,45.47-64.74,51.76-101.1
								c3.48-20.08,3.37-42.53-0.28-60.37c-4.65-22.69-14.48-43.96-28.15-60.93c-19.68-24.42-48.87-40.7-83.98-46.84
								C933.02,0.85,922.95,0,912.48,0L912.48,0z" class="st0"></path></svg>