<svg width="377" height="940" viewBox="0 0 377 940" fill="none" xmlns="http://www.w3.org/2000/svg">
<path d="M856.24 249.631C926.55 424.192 849.48 682.376 667.478 693.008C458.259 705.23 361.328 683.191 291.018 508.63C264.12 441.85 192.964 367.182 207.756 301.911C231.631 196.566 305.083 104.281 412.863 60.8685C501.054 25.3469 555.098 116.938 635.894 152.098C715.021 186.532 821.452 163.261 856.24 249.631Z" fill="#5D4FFF"/>
<path d="M226.066 507.956L335.793 626.356C361.543 654.141 405.363 654.544 431.62 627.238C450.915 607.17 455.518 577.142 443.118 552.217L362.709 390.587C353.63 372.339 348.665 352.322 348.163 331.947L346.675 271.57C345.513 224.454 305.039 187.97 258.055 191.688C223.43 194.428 194.244 218.641 185.488 252.253C175.971 288.783 166.816 325.082 166.649 329.057C165.093 366.143 176.99 420.699 196.691 465.356C203.701 481.248 214.26 495.216 226.066 507.956Z" fill="#968DFF" fill-opacity="0.2"/>
<path d="M365.136 264.831L374.816 209.32C377.118 196.12 384.415 184.313 395.192 176.352C414.124 162.367 440.088 162.795 458.46 177.507C499.41 210.3 548.824 250.525 548.816 253.101C548.808 255.451 507.188 329.803 468.435 398.453C448.683 433.443 399.238 435.839 376.108 402.983C370.202 394.593 366.77 384.714 366.204 374.469L362.564 308.59C361.755 293.953 362.618 279.272 365.136 264.831Z" fill="#968DFF" fill-opacity="0.2"/>
</svg>
