<svg width="305" height="612" viewBox="0 0 305 612" fill="none" xmlns="http://www.w3.org/2000/svg">
<path d="M-336.076 358.996C-328.939 405.914 -278.636 464.721 -241.327 491.757C-199.831 521.828 -91.8358 532.236 -34.4031 523.5C21.338 515.021 115.729 416.337 146.505 377.129C175.948 339.618 235.354 343.035 227.984 294.581C220.043 242.381 88.5631 168.783 44.4153 141.951C4.74911 117.843 -24.945 169.192 -76.5642 177.044C-133.997 185.78 -253.722 76.0683 -284.4 117.118C-311.982 154.025 -343.213 312.079 -336.076 358.996Z" fill="#5D4FFF"/>
<path d="M92.3546 269.421L184.725 249.41C219.755 241.821 253.407 266.952 256.077 302.694C257.158 317.165 252.871 331.527 244.033 343.036L225.661 366.963C214.193 381.897 199.791 394.328 183.341 403.489L126.166 435.331C106.362 446.36 91.0483 463.98 82.8868 485.129L80.0813 492.398C70.0824 518.308 47.7194 537.448 20.5771 543.329L-1.43741 548.098C-33.8131 555.112 -65.7447 534.552 -72.7586 502.176C-74.5751 493.791 -74.5717 485.115 -72.7487 476.731L-66.0534 445.942C-58.482 411.123 -41.9724 378.877 -18.1503 352.378L17.2186 313.036C37.0601 290.965 63.3493 275.705 92.3546 269.421Z" fill="#968DFF" fill-opacity="0.2"/>
<path d="M-115.489 183.227L-112.058 178.875C-102.373 166.592 -89.4615 157.245 -74.7673 151.882L-53.5941 144.153C-32.3529 136.4 -9.73589 133.131 12.8313 134.553L92.9797 139.604C106.384 140.448 118.843 146.8 127.399 157.153C150.149 184.679 136.456 226.518 101.834 235.267L20.1994 255.896C10.9039 258.245 2.11719 262.277 -5.72562 267.792L-23.5618 280.334C-69.0356 312.311 -131.515 278.755 -129.972 223.186C-129.568 208.655 -124.489 194.642 -115.489 183.227Z" fill="#968DFF" fill-opacity="0.2"/>
</svg>
