<svg width="204" height="380" viewBox="0 0 204 380" fill="none" xmlns="http://www.w3.org/2000/svg">
<path d="M94.0506 79.3922L150.867 124.578C155.805 128.505 161.928 130.643 168.237 130.643H170.22C187.375 130.643 199.958 146.769 195.788 163.409C194.625 168.049 192.222 172.285 188.835 175.663L158.639 205.783C140.473 223.903 112.057 226.715 90.6915 212.508L86.498 209.719C63.3669 194.337 32.0907 201.207 17.5355 224.867C0.693497 252.245 -37.4842 256.305 -59.7073 233.082L-74.9616 217.141C-95.1604 196.034 -99.1071 164.17 -84.6684 138.772L-68.8134 110.883C-35.695 52.6269 41.6032 37.6809 94.0506 79.3922Z" fill="#5D4FFF"/>
<path d="M-40.6016 161.363L-20 206C-6.41605 233.463 -13.1373 266.359 -34.9529 287.873C-46.7365 299.493 -56 309.588 -56 312.5C-56 350.181 -12.6358 372.395 24.1559 364.259C43.9585 359.88 60.1832 356.5 63 356.5C68.1211 356.5 95.9463 316.919 115.077 288.432C121.037 279.556 125.422 269.742 128.214 259.422C136.003 230.625 130.671 199.858 113.645 175.362L111.692 172.552C98.5712 153.674 79.7979 139.429 58.021 132.061C20.691 119.43 -23.2012 105 -28 105C-50.3623 105 -49.9727 141.059 -40.6016 161.363Z" fill="#968DFF" fill-opacity="0.2"/>
</svg>
