<svg width="241" height="491" viewBox="0 0 241 491" fill="none" xmlns="http://www.w3.org/2000/svg">
<path d="M-50.2412 362.561C-55.2698 358.679 -47.1947 306.538 -40.9423 272.064C-39.4438 263.801 -36.4707 255.897 -32.2633 248.63L-26.5266 238.722C-3.04394 198.163 53.7282 193.563 83.435 229.811C86.6698 233.758 90.3442 237.323 94.3871 240.437L113.22 254.943C149.727 283.062 158.445 334.54 133.234 373.111C107.735 412.122 56.275 424.599 15.8672 401.378C-17.2792 382.33 -47.028 365.041 -50.2412 362.561Z" fill="#5D4FFF"/>
<path d="M136.822 180.782L88.6328 87.464C66.4803 44.5657 8.7145 36.1664 -24.7375 70.9796C-40.3612 87.239 -47.2555 109.996 -43.2822 132.192L-35.1112 177.839C-30.5659 203.231 -34.3492 229.412 -45.8971 252.479L-58.3913 277.435C-82.3524 325.297 -61.1885 383.461 -12.0725 404.732C30.4985 423.169 80.1482 407.502 104.428 367.971L129.227 327.596L132.209 322.64C158.254 279.357 160 225.666 136.822 180.782Z" fill="#968DFF" fill-opacity="0.2"/>
</svg>
