<svg width="237" height="384" viewBox="0 0 237 384" fill="none" xmlns="http://www.w3.org/2000/svg">
<path d="M259.316 146.937L310.04 207.35C314.446 212.597 320.5 216.198 327.215 217.563L329.336 217.994C347.593 221.706 357.494 241.592 349.454 258.398C347.212 263.084 343.737 267.072 339.402 269.934L300.741 295.452C277.482 310.806 246.626 307.649 226.957 287.904L223.093 284.025C201.799 262.648 167.024 263.192 146.408 285.223C122.554 310.716 81.0409 306.775 62.4096 277.249L49.6272 256.992C32.6897 230.15 35.3854 195.372 56.257 171.461L79.173 145.208C127.029 90.3832 212.521 91.2036 259.316 146.937Z" fill="#5D4FFF"/>
<path d="M98.6137 58.3012L109.908 106.148C117.747 135.767 104.606 166.664 78.9412 183.4C65.0784 192.439 53.9892 200.486 53.409 203.339C45.9009 240.264 83.9692 270.673 121.644 270.031C141.922 269.686 158.495 269.607 161.255 270.168C166.274 271.189 201.428 237.946 225.851 213.842C233.46 206.332 239.713 197.588 244.505 188.031C257.876 161.364 258.781 130.151 246.978 102.754L245.624 99.6108C236.528 78.4972 220.969 60.7975 201.097 49.2379C167.033 29.4223 126.896 6.5354 122.193 5.5792C100.28 1.12336 93.4763 36.5371 98.6137 58.3012Z" fill="#968DFF" fill-opacity="0.2"/>
</svg>
