<svg width="72" height="72" viewBox="0 0 72 72" fill="none" xmlns="http://www.w3.org/2000/svg">
<path d="M45.1251 58.5C45.6876 59.3125 46.0312 59.25 46.4687 59.0625C46.9061 58.875 69.4063 51.2813 70.0937 51.0314C70.7811 50.7814 70.5624 50.5626 70.3438 50.2187C70.1252 49.8749 62.625 39.6876 62.25 39.0938C61.875 38.5 61.6875 38.625 61.0937 38.8125L37.2422 45.0188C37.2422 45.0188 44.5626 57.6876 45.1251 58.5Z" fill="#001220" fill-opacity="0.2"/>
<path d="M72.0003 48.1262V36.2015C69.3168 36.9167 65.9229 37.8204 64.583 38.1769C66.6043 40.8814 69.7644 45.1138 72.0003 48.1262Z" fill="#001220" fill-opacity="0.2"/>
<path d="M64.5599 23.4903C64.1922 23.5738 56.0528 25.0447 55.5514 25.1114C55.0501 25.1782 55.2171 25.4625 55.4177 25.7465L62.5804 35.5741C62.5804 35.5741 71.3382 33.4014 71.8731 33.2844C71.9164 33.2748 71.9588 33.2647 72.0002 33.2544V31.9531C70.4084 29.9345 66.0713 24.4387 65.6965 23.9251C65.2454 23.3066 64.9276 23.4069 64.5599 23.4903Z" fill="#001220" fill-opacity="0.2"/>
<path d="M13.3472 8.05331C15.1097 7.97325 15.2706 8.37431 16.045 9.52256L35.4992 42.0469L59.9605 36.1869C58.6052 34.2658 52.4524 25.5428 51.8578 24.7104C51.1894 23.7744 51.8745 23.3398 52.9609 23.1561C54.0473 22.9723 63.4065 21.4012 64.2088 21.2842C65.0112 21.1672 65.6464 20.8832 66.9499 22.4543C67.6168 23.2581 69.8783 26.0739 72.0002 28.7134V13.5C72.0002 9.78131 70.6798 6.6015 68.0393 3.96094C65.3987 1.32037 62.2189 0 58.5002 0H13.5002C9.78153 0 6.60172 1.32037 3.96116 3.96094C2.44653 5.47556 1.36859 7.16831 0.722656 9.03769C5.13209 8.67544 12.1137 8.10938 13.3472 8.05331Z" fill="#001220" fill-opacity="0.2"/>
<path d="M47.3312 62.8773C45.2685 63.5022 44.3436 63.8124 42.9999 61.9374C41.9936 60.533 36.5518 50.7314 33.8835 45.8996C28.8338 47.2222 19.5921 49.6342 16.9271 50.2745C14.3259 50.8994 13.2152 49.34 12.7879 48.3787C12.4883 47.7046 4.86263 31.2635 0 20.7142V58.4999C0 62.2188 1.32037 65.3982 3.96094 68.039C6.6015 70.6796 9.78131 71.9999 13.5 71.9999H58.5C62.2187 71.9999 65.3985 70.6796 68.0391 68.039C70.6796 65.3982 72 62.2188 72 58.4999V54.0614C66.4761 56.0819 48.7209 62.4562 47.3312 62.8773Z" fill="#001220" fill-opacity="0.2"/>
<path d="M16.9907 46.4872C17.7218 46.3199 31.4224 43.0409 31.7149 42.9783C32.0074 42.9157 32.1953 42.7484 31.882 42.2056C31.5686 41.6628 13.6195 10.6805 13.6195 10.6805C13.4537 10.3961 13.501 10.3014 13.0508 10.325C12.6493 10.3462 2.49321 11.2524 0.14177 11.4489C0.0723945 11.9379 0.030582 12.4381 0.012207 12.9481C2.39927 17.8348 16.0993 46.0897 16.1762 46.3199C16.2598 46.5706 16.2596 46.6543 16.9907 46.4872Z" fill="#001220" fill-opacity="0.2"/>
</svg>
