<svg width="160" height="36" viewBox="0 0 160 36" fill="none" xmlns="http://www.w3.org/2000/svg">
<path d="M157.605 0L65.3951 0C64.0723 0 63 1.0674 63 2.38411V33.6159C63 34.9326 64.0723 36 65.3951 36L157.605 36C158.928 36 160 34.9326 160 33.6159V2.38411C160 1.0674 158.928 0 157.605 0Z" fill="#52ACFF"/>
<rect x="63" width="97" height="35.9549" rx="2" fill="#FFD952"/>
<path d="M63 2C63 0.895431 63.8954 0 65 0H158C159.105 0 160 0.895431 160 2V18.6372H63V2Z" fill="#52ACFF"/>
<path d="M71.6183 29.7201H75.0396C73.0879 26.2582 72.2612 22.7964 72.2612 18.9191C72.2612 15.0418 73.0879 11.58 75.0396 8.11815H71.6183C69.7813 10.8645 68.748 14.6726 68.748 18.9191C68.748 23.1657 69.7813 26.9275 71.6183 29.7201ZM84.2342 12.6416C82.581 12.6416 81.2492 13.1724 80.3537 14.2572V12.8263H76.9323V29.7201H80.5144V23.9273C81.4329 24.9427 82.6958 25.4274 84.2342 25.4274C87.7015 25.4274 90.388 22.9349 90.388 19.0345C90.388 15.1342 87.7015 12.6416 84.2342 12.6416ZM83.6143 22.4733C81.8232 22.4733 80.4685 21.1809 80.4685 19.0345C80.4685 16.8882 81.8232 15.5957 83.6143 15.5957C85.4053 15.5957 86.7601 16.8882 86.7601 19.0345C86.7601 21.1809 85.4053 22.4733 83.6143 22.4733ZM94.5769 11.0953C95.9087 11.0953 96.8042 10.2183 96.8042 9.01823C96.8042 7.91043 95.9087 7.07959 94.5769 7.07959C93.2451 7.07959 92.3496 7.95659 92.3496 9.08746C92.3496 10.2183 93.2451 11.0953 94.5769 11.0953ZM92.7859 25.2428H96.368V12.8263H92.7859V25.2428ZM99.6924 25.2428L103.275 25.2428V8.11815H99.6924V25.2428ZM106.599 25.2428H110.181V8.11815H106.599V25.2428ZM119.384 25.4274C123.31 25.4274 126.158 22.7733 126.158 19.0345C126.158 15.2957 123.31 12.6416 119.384 12.6416C115.457 12.6416 112.587 15.2957 112.587 19.0345C112.587 22.7733 115.457 25.4274 119.384 25.4274ZM119.384 22.4733C117.593 22.4733 116.215 21.1809 116.215 19.0345C116.215 16.8882 117.593 15.5957 119.384 15.5957C121.175 15.5957 122.53 16.8882 122.53 19.0345C122.53 21.1809 121.175 22.4733 119.384 22.4733ZM144.886 12.8263L141.878 21.227L138.939 12.8263H135.908L132.877 21.227L129.961 12.8263H126.585L131.04 25.2428H134.484L137.354 17.5344L140.133 25.2428H143.577L148.055 12.8263H144.886ZM151.718 29.7201C153.6 26.9275 154.611 23.1657 154.611 18.9191C154.611 14.6726 153.6 10.8645 151.718 8.11815L148.296 8.11815C150.271 11.58 151.098 15.0418 151.098 18.9191C151.098 22.7964 150.271 26.2582 148.296 29.7201H151.718Z" fill="white"/>
<path d="M6.8886 25.4271C9.4833 25.4271 11.5269 24.2731 12.4224 22.2883L9.64403 20.7651C8.97814 21.9652 7.99077 22.4729 6.86563 22.4729C5.05164 22.4729 3.62799 21.2036 3.62799 19.0342C3.62799 16.8647 5.05164 15.5954 6.86563 15.5954C7.99077 15.5954 8.97814 16.1262 9.64403 17.3032L12.4224 15.8031C11.5269 13.7722 9.4833 12.6413 6.8886 12.6413C2.87025 12.6413 0 15.2954 0 19.0342C0 22.773 2.87025 25.4271 6.8886 25.4271ZM20.2062 25.4271C24.1328 25.4271 26.9801 22.773 26.9801 19.0342C26.9801 15.2954 24.1328 12.6413 20.2062 12.6413C16.2797 12.6413 13.4094 15.2954 13.4094 19.0342C13.4094 22.773 16.2797 25.4271 20.2062 25.4271ZM20.2062 22.4729C18.4152 22.4729 17.0374 21.1805 17.0374 19.0342C17.0374 16.8878 18.4152 15.5954 20.2062 15.5954C21.9972 15.5954 23.3521 16.8878 23.3521 19.0342C23.3521 21.1805 21.9972 22.4729 20.2062 22.4729ZM38.3755 8.1178V14.1414C37.4799 13.1259 36.1941 12.6413 34.6786 12.6413C31.1884 12.6413 28.5018 15.1338 28.5018 19.0342C28.5018 22.9345 31.1884 25.4271 34.6786 25.4271C36.3318 25.4271 37.6407 24.8962 38.5362 23.8115V25.2424H41.9575V8.1178H38.3755ZM35.2985 22.4729C33.5075 22.4729 32.1298 21.1805 32.1298 19.0342C32.1298 16.8878 33.5075 15.5954 35.2985 15.5954C37.0666 15.5954 38.4443 16.8878 38.4443 19.0342C38.4443 21.1805 37.0666 22.4729 35.2985 22.4729ZM57.3739 19.0803C57.3739 15.0877 54.5725 12.6413 50.9445 12.6413C47.1787 12.6413 44.3544 15.3184 44.3544 19.0342C44.3544 22.7268 47.1328 25.4271 51.4037 25.4271C53.6311 25.4271 55.3532 24.7347 56.5013 23.4192L54.5955 21.3421C53.7459 22.1498 52.8044 22.5422 51.4956 22.5422C49.6127 22.5422 48.3039 21.5959 47.9594 20.0496L57.305 20.0496C57.3279 19.7496 57.3739 19.3573 57.3739 19.0803ZM50.9675 15.3646C52.5748 15.3646 53.7459 16.3801 53.9985 17.9495L47.9135 17.9495C48.1661 16.357 49.3372 15.3646 50.9675 15.3646Z" fill="#383C41"/>
</svg>
