<svg width="510" height="350" viewBox="0 0 510 350" fill="none" xmlns="http://www.w3.org/2000/svg">
<path d="M4.07901 283.297C-14.1982 270.402 33.2828 249.722 60.6986 256.676C94.4717 230.054 409.332 243.166 468.36 243.166C511.272 243.166 517.629 267.082 500.345 277.138C478.492 289.853 459.221 281.509 455.645 296.806C453.138 307.534 468.36 326.544 451.076 333.758C428.23 343.294 390.086 340.197 372.802 324.222C346.578 299.985 251.219 304.951 231.948 324.222C223.406 332.764 212.082 348.658 191.619 349.85C171.157 351.042 152.879 344.486 143.939 342.3C119.106 336.23 105.994 361.77 75.0025 342.3C42.2228 294.223 36.4615 306.143 4.07901 283.297Z" fill="#CDC9FF" fill-opacity="0.2"/>
<path d="M401.283 0H41.8254C33.0478 0 25.9321 7.11564 25.9321 15.8932V261.86C25.9321 270.637 33.0478 277.753 41.8254 277.753H401.283C410.06 277.753 417.176 270.637 417.176 261.86V15.8932C417.176 7.11564 410.06 0 401.283 0Z" fill="#B5AEFF" fill-opacity="0.51"/>
<path d="M389.886 60.7916H53.3467C46.7635 60.7916 41.4268 66.1283 41.4268 72.7115V249.921C41.4268 256.504 46.7635 261.841 53.3467 261.841H389.886C396.469 261.841 401.806 256.504 401.806 249.921V72.7115C401.806 66.1283 396.469 60.7916 389.886 60.7916Z" fill="#383C41"/>
<path d="M78.1311 79.4661H64.425C62.2306 79.4661 60.4517 81.245 60.4517 83.4394V83.706C60.4517 85.9004 62.2306 87.6793 64.425 87.6793H78.1311C80.3255 87.6793 82.1044 85.9004 82.1044 83.706V83.4394C82.1044 81.245 80.3255 79.4661 78.1311 79.4661Z" fill="#FFED4F"/>
<path d="M78.1311 114.558H64.425C62.2306 114.558 60.4517 116.337 60.4517 118.532V118.798C60.4517 120.993 62.2306 122.771 64.425 122.771H78.1311C80.3255 122.771 82.1044 120.993 82.1044 118.798V118.532C82.1044 116.337 80.3255 114.558 78.1311 114.558Z" fill="#999999"/>
<path d="M77.7576 149.651H64.0514C61.857 149.651 60.0781 151.43 60.0781 153.624V153.891C60.0781 156.085 61.857 157.864 64.0514 157.864H77.7576C79.952 157.864 81.7309 156.085 81.7309 153.891V153.624C81.7309 151.43 79.952 149.651 77.7576 149.651Z" fill="#999999"/>
<path d="M77.3841 184.743H63.6779C61.4835 184.743 59.7046 186.522 59.7046 188.717V188.983C59.7046 191.178 61.4835 192.956 63.6779 192.956H77.3841C79.5785 192.956 81.3574 191.178 81.3574 188.983V188.717C81.3574 186.522 79.5785 184.743 77.3841 184.743Z" fill="#5D4FFF"/>
<path d="M183.036 79.4661H97.652C95.4576 79.4661 93.6787 81.245 93.6787 83.4394V83.706C93.6787 85.9004 95.4576 87.6793 97.652 87.6793H183.036C185.231 87.6793 187.01 85.9004 187.01 83.706V83.4394C187.01 81.245 185.231 79.4661 183.036 79.4661Z" fill="#999999"/>
<path d="M183.036 114.558H97.652C95.4576 114.558 93.6787 116.337 93.6787 118.532V118.798C93.6787 120.993 95.4576 122.771 97.652 122.771H183.036C185.231 122.771 187.01 120.993 187.01 118.798V118.532C187.01 116.337 185.231 114.558 183.036 114.558Z" fill="#FFED4F"/>
<path d="M182.663 149.651H97.2785C95.0841 149.651 93.3052 151.43 93.3052 153.624V153.891C93.3052 156.085 95.0841 157.864 97.2785 157.864H182.663C184.857 157.864 186.636 156.085 186.636 153.891V153.624C186.636 151.43 184.857 149.651 182.663 149.651Z" fill="#999999"/>
<path d="M182.289 184.743H96.9049C94.7106 184.743 92.9316 186.522 92.9316 188.717V188.983C92.9316 191.178 94.7106 192.956 96.9049 192.956H182.289C184.484 192.956 186.263 191.178 186.263 188.983V188.717C186.263 186.522 184.484 184.743 182.289 184.743Z" fill="#999999"/>
<path d="M249.487 79.4661H197.702C195.507 79.4661 193.729 81.245 193.729 83.4394V83.706C193.729 85.9004 195.507 87.6793 197.702 87.6793H249.487C251.682 87.6793 253.46 85.9004 253.46 83.706V83.4394C253.46 81.245 251.682 79.4661 249.487 79.4661Z" fill="#5D4FFF"/>
<path d="M249.487 114.558H197.702C195.507 114.558 193.729 116.337 193.729 118.532V118.798C193.729 120.993 195.507 122.771 197.702 122.771H249.487C251.682 122.771 253.46 120.993 253.46 118.798V118.532C253.46 116.337 251.682 114.558 249.487 114.558Z" fill="#999999"/>
<path d="M249.114 149.651H197.328C195.134 149.651 193.355 151.43 193.355 153.624V153.891C193.355 156.085 195.134 157.864 197.328 157.864H249.114C251.308 157.864 253.087 156.085 253.087 153.891V153.624C253.087 151.43 251.308 149.651 249.114 149.651Z" fill="#FFED4F"/>
<path d="M248.74 184.743H196.955C194.76 184.743 192.981 186.522 192.981 188.717V188.983C192.981 191.178 194.76 192.956 196.955 192.956H248.74C250.934 192.956 252.713 191.178 252.713 188.983V188.717C252.713 186.522 250.934 184.743 248.74 184.743Z" fill="#5D4FFF"/>
<path d="M149.437 97.0123H97.652C95.4576 97.0123 93.6787 98.7912 93.6787 100.986V101.252C93.6787 103.447 95.4576 105.225 97.652 105.225H149.437C151.632 105.225 153.411 103.447 153.411 101.252V100.986C153.411 98.7912 151.632 97.0123 149.437 97.0123Z" fill="#5D4FFF"/>
<path d="M149.437 132.105H97.652C95.4576 132.105 93.6787 133.884 93.6787 136.078V136.345C93.6787 138.539 95.4576 140.318 97.652 140.318H149.437C151.632 140.318 153.411 138.539 153.411 136.345V136.078C153.411 133.884 151.632 132.105 149.437 132.105Z" fill="#999999"/>
<path d="M149.064 167.197H97.2785C95.0841 167.197 93.3052 168.976 93.3052 171.17V171.437C93.3052 173.631 95.0841 175.41 97.2785 175.41H149.064C151.258 175.41 153.037 173.631 153.037 171.437V171.17C153.037 168.976 151.258 167.197 149.064 167.197Z" fill="#5D4FFF"/>
<path d="M148.69 202.29H96.9049C94.7106 202.29 92.9316 204.069 92.9316 206.263V206.53C92.9316 208.724 94.7106 210.503 96.9049 210.503H148.69C150.885 210.503 152.664 208.724 152.664 206.53V206.263C152.664 204.069 150.885 202.29 148.69 202.29Z" fill="#5D4FFF"/>
<path d="M315.939 79.4661H264.153C261.959 79.4661 260.18 81.245 260.18 83.4394V83.706C260.18 85.9004 261.959 87.6793 264.153 87.6793H315.939C318.133 87.6793 319.912 85.9004 319.912 83.706V83.4394C319.912 81.245 318.133 79.4661 315.939 79.4661Z" fill="#FFED4F"/>
<path d="M315.939 114.558H264.153C261.959 114.558 260.18 116.337 260.18 118.532V118.798C260.18 120.993 261.959 122.771 264.153 122.771H315.939C318.133 122.771 319.912 120.993 319.912 118.798V118.532C319.912 116.337 318.133 114.558 315.939 114.558Z" fill="#999999"/>
<path d="M215.889 97.0123H164.104C161.909 97.0123 160.13 98.7912 160.13 100.986V101.252C160.13 103.447 161.909 105.225 164.104 105.225H215.889C218.083 105.225 219.862 103.447 219.862 101.252V100.986C219.862 98.7912 218.083 97.0123 215.889 97.0123Z" fill="#999999"/>
<path d="M215.889 132.105H164.104C161.909 132.105 160.13 133.884 160.13 136.078V136.345C160.13 138.539 161.909 140.318 164.104 140.318H215.889C218.083 140.318 219.862 138.539 219.862 136.345V136.078C219.862 133.884 218.083 132.105 215.889 132.105Z" fill="#999999"/>
<path d="M215.513 167.197H163.728C161.533 167.197 159.754 168.976 159.754 171.17V171.437C159.754 173.631 161.533 175.41 163.728 175.41H215.513C217.707 175.41 219.486 173.631 219.486 171.437V171.17C219.486 168.976 217.707 167.197 215.513 167.197Z" fill="#999999"/>
<path d="M215.141 202.29H163.356C161.162 202.29 159.383 204.069 159.383 206.263V206.53C159.383 208.724 161.162 210.503 163.356 210.503H215.141C217.336 210.503 219.115 208.724 219.115 206.53V206.263C219.115 204.069 217.336 202.29 215.141 202.29Z" fill="#FFED4F"/>
<path d="M263.674 97.0123H230.555C228.361 97.0123 226.582 98.7912 226.582 100.986V101.252C226.582 103.447 228.361 105.225 230.555 105.225H263.674C265.869 105.225 267.648 103.447 267.648 101.252V100.986C267.648 98.7912 265.869 97.0123 263.674 97.0123Z" fill="#999999"/>
<path d="M263.674 132.105H230.555C228.361 132.105 226.582 133.884 226.582 136.078V136.345C226.582 138.539 228.361 140.318 230.555 140.318H263.674C265.869 140.318 267.648 138.539 267.648 136.345V136.078C267.648 133.884 265.869 132.105 263.674 132.105Z" fill="#5D4FFF"/>
<path d="M392.909 24.6392H103.21C97.4368 24.6392 92.7568 29.3192 92.7568 35.0923C92.7568 40.8654 97.4368 45.5454 103.21 45.5454H392.909C398.682 45.5454 403.362 40.8654 403.362 35.0923C403.362 29.3192 398.682 24.6392 392.909 24.6392Z" fill="white"/>
<path d="M402.005 18.2772C404.528 18.2772 406.574 16.2315 406.574 13.7079C406.574 11.1844 404.528 9.13861 402.005 9.13861C399.481 9.13861 397.436 11.1844 397.436 13.7079C397.436 16.2315 399.481 18.2772 402.005 18.2772Z" fill="white"/>
<path d="M382.139 18.2772C384.663 18.2772 386.708 16.2315 386.708 13.7079C386.708 11.1844 384.663 9.13861 382.139 9.13861C379.616 9.13861 377.57 11.1844 377.57 13.7079C377.57 16.2315 379.616 18.2772 382.139 18.2772Z" fill="white"/>
<path d="M362.67 18.2772C365.193 18.2772 367.239 16.2315 367.239 13.7079C367.239 11.1844 365.193 9.13861 362.67 9.13861C360.146 9.13861 358.101 11.1844 358.101 13.7079C358.101 16.2315 360.146 18.2772 362.67 18.2772Z" fill="white"/>
<path d="M57.3208 29.0051L45.4009 34.9651L57.3208 40.925" stroke="white" stroke-width="4" stroke-linecap="round" stroke-linejoin="round"/>
<path d="M68.8423 29.0051L80.7622 34.9651L68.8423 40.925" stroke="white" stroke-width="4" stroke-linecap="round" stroke-linejoin="round"/>
<path d="M479.684 60.7916H378.365C369.587 60.7916 362.472 67.9072 362.472 76.6848V208.201C362.472 216.979 369.587 224.094 378.365 224.094H479.684C488.462 224.094 495.577 216.979 495.577 208.201V76.6848C495.577 67.9072 488.462 60.7916 479.684 60.7916Z" fill="#B5AEFF"/>
<path d="M362.472 84.2341H495.577V208.599C495.577 217.376 488.461 224.492 479.684 224.492H378.365C369.588 224.492 362.472 217.376 362.472 208.599V84.2341Z" fill="#B5AEFF"/>
<path d="M455.446 24.6345H351.345C342.568 24.6345 335.452 31.7501 335.452 40.5277V188.732C335.452 197.51 342.568 204.625 351.345 204.625H455.446C464.224 204.625 471.339 197.51 471.339 188.732V40.5277C471.339 31.7501 464.224 24.6345 455.446 24.6345Z" fill="#5D4FFF"/>
<path d="M335.452 50.4609H471.339V188.732C471.339 197.509 464.223 204.625 455.446 204.625H351.345C342.568 204.625 335.452 197.509 335.452 188.732V50.4609Z" fill="#5D4FFF"/>
<path d="M392.272 160.124H352.936C350.742 160.124 348.963 161.903 348.963 164.098V178.401C348.963 180.596 350.742 182.375 352.936 182.375H392.272C394.466 182.375 396.245 180.596 396.245 178.401V164.098C396.245 161.903 394.466 160.124 392.272 160.124Z" fill="white"/>
<path d="M414.521 161.124H453.857C455.499 161.124 456.83 162.455 456.83 164.098V178.401C456.83 180.044 455.499 181.375 453.857 181.375H414.521C412.879 181.375 411.548 180.044 411.548 178.401V164.098C411.548 162.455 412.879 161.124 414.521 161.124Z" stroke="white" stroke-width="2"/>
<path d="M449.885 34.9651L459.421 44.501" stroke="white" stroke-width="4" stroke-linecap="round"/>
<path d="M459.421 34.9651L449.885 44.501" stroke="white" stroke-width="4" stroke-linecap="round"/>
<path d="M403.199 140.258C423.936 140.258 440.746 123.447 440.746 102.71C440.746 81.9729 423.936 65.1622 403.199 65.1622C382.462 65.1622 365.651 81.9729 365.651 102.71C365.651 123.447 382.462 140.258 403.199 140.258Z" fill="white"/>
<path d="M403.198 121.186C413.402 121.186 421.673 112.914 421.673 102.71C421.673 92.506 413.402 84.2341 403.198 84.2341C392.994 84.2341 384.722 92.506 384.722 102.71C384.722 112.914 392.994 121.186 403.198 121.186Z" fill="#FFED4F"/>
<path fill-rule="evenodd" clip-rule="evenodd" d="M391.874 108.869C393.574 113.506 398.028 116.815 403.253 116.815C408.482 116.815 412.936 113.506 414.637 108.869H391.874Z" fill="white"/>
<path d="M283.566 211.042L286.148 228.398C286.235 228.983 286.906 229.271 287.39 228.932L300.243 219.925C300.727 219.586 300.684 218.856 300.165 218.575L284.73 210.226C284.154 209.915 283.47 210.394 283.566 211.042Z" fill="white"/>
<path d="M290.203 224.363L294.952 231.139C295.204 231.499 295.699 231.586 296.058 231.334L299.544 228.891C299.903 228.639 299.99 228.144 299.738 227.784L294.989 221.008C294.737 220.649 294.242 220.562 293.882 220.814L290.397 223.256C290.038 223.508 289.951 224.004 290.203 224.363Z" fill="white"/>
<path d="M168.633 197.3C167.085 204.18 165.888 224.357 166.817 231.113C170.301 236.742 170.301 241.434 170.301 242.607C170.301 243.015 169.878 242.94 169.327 242.589C170.325 244.734 171.073 247.086 170.301 247.532C168.675 248.471 164.004 247.642 164.004 244.358C164.004 241.074 162.812 234.822 161.94 231.113C161.167 227.829 159.849 214.458 159.849 213.52C159.849 212.582 158.223 192.918 161.94 188.931C164.912 185.741 167.085 194.407 168.633 197.3Z" fill="#F0C8C7"/>
<path d="M205.903 193.883C206.807 200.878 206.128 221.078 204.577 227.719C200.586 233.001 200.151 237.672 200.043 238.84C200.005 239.247 200.433 239.211 201.014 238.913C199.822 240.956 198.858 243.229 199.586 243.745C201.118 244.83 207.868 244.987 208.172 241.717C208.477 238.448 208.172 232.24 209.434 228.171C210.432 224.949 213.059 211.782 213.146 210.848C213.233 209.913 215.412 187.484 212.082 183.169C209.418 179.717 207.713 191.146 205.903 193.883Z" fill="#F0C8C7"/>
<path d="M198.842 176.175C195.981 174.268 191.889 167.078 193.279 161.672C188.975 159.95 182.551 157.676 182.551 163.659C182.551 170.654 178.644 174.387 175.598 176.175C184.538 176.97 201.703 178.082 198.842 176.175Z" fill="#F0C8C7"/>
<path d="M177.17 155.724C175.597 166.135 181.317 166.999 186.85 167.835C192.382 168.671 198.13 160.996 199.064 154.813C199.999 148.629 196.271 142.938 190.738 142.102C180.449 140.547 178.105 149.54 177.17 155.724Z" fill="#F0C8C7"/>
<path d="M185.064 153.568C183.67 154.02 185.064 149.794 180.089 145.717C184.36 138.727 194.623 141.283 197.93 146.58C203.161 154.959 195.244 163.987 193.209 165.488C191.174 166.989 185.118 159.855 185.66 158.932C186.201 158.009 188.444 152.472 185.064 153.568Z" fill="#573D3D"/>
<path d="M197.052 333.559C194.995 332.963 195.198 328.394 196.059 326.01L203.807 323.824C206.389 323.824 206.191 329.387 202.615 331.97C199.157 334.467 198.174 333.732 197.052 333.559Z" fill="#383C41"/>
<path d="M178.974 334.751C180.881 334.274 179.769 328.857 178.974 326.208H172.418C171.226 326.208 165.862 326.208 165.862 329.387C165.862 332.566 176.59 335.347 178.974 334.751Z" fill="#383C41"/>
<path d="M170.033 278.727C165.791 254.689 169.437 232.372 171.424 224.492H204.799C207.978 234.624 203.607 274.158 203.607 276.343C203.607 278.529 206.587 323.825 203.607 325.215C200.627 326.606 197.846 327.003 196.257 327.003C194.667 327.003 192.213 287.866 191.419 284.687C190.749 282.01 190.286 250.12 187.108 250.12C183.929 250.12 183.869 279.919 183.273 282.303C182.677 284.687 182.151 325.414 180.363 327.003C178.575 328.592 173.41 330.182 170.033 327.003C169.168 319.851 170.033 297.005 170.033 278.727Z" fill="#999999"/>
<path d="M194.798 170.852C190.923 173.07 184.659 171.379 180.891 170.455C164.744 170.455 161.583 186.82 159.738 190.749C157.893 194.677 167.12 197.219 168.734 197.219C170.349 197.219 167.12 236.273 168.734 239.046C170.349 241.819 206.334 242.974 208.641 239.046C210.947 235.117 204.488 197.45 206.334 197.219C208.179 196.988 211.87 193.521 214.407 190.749C214.407 178.004 200.564 170.852 194.798 170.852Z" fill="#FFED4F"/>
<path d="M90.5926 178.203C93.4534 176.296 95.4929 167.74 96.1552 163.7C100.459 161.979 108.631 159.965 106.883 165.687C105.135 171.408 110.79 176.415 113.836 178.203C104.896 178.997 87.7318 180.11 90.5926 178.203Z" fill="#F0C8C7"/>
<path d="M100.923 334.155C102.831 331.612 101.718 326.606 100.923 324.42C95.9567 313.494 88.1746 320.549 87.6128 322.235C86.4208 325.811 93.4794 332.566 94.274 333.36C95.0687 334.155 98.5394 335.546 100.923 334.155Z" fill="#383C41"/>
<path d="M108.867 322.633C106.642 322.315 107.013 317.997 107.477 315.878C110.059 315.878 115.503 315.52 116.615 314.09C118.006 312.302 120.986 314.09 121.185 315.878C121.383 317.666 111.649 323.03 108.867 322.633Z" fill="#383C41"/>
<path d="M87.2152 282.105C81.0565 247.736 86.0232 233.034 89.0031 224.69C99.5324 221.048 117.202 215.661 119.2 224.69C124.564 248.928 120.326 287.932 117.81 314.09C115.624 315.812 110.34 318.659 106.684 316.275C111.452 302.766 106.684 252.305 101.916 253.894C98.102 255.166 100.327 301.574 101.916 324.619C99.1351 326.341 91.109 328.751 89.9965 324.619C88.6058 319.454 87.2152 292.634 87.2152 282.105Z" fill="#9E95FF"/>
<path d="M79.7423 207.564C78.1939 214.445 75.3292 229.895 76.2581 236.65C78.1804 242.769 79.7423 243.365 79.7423 248.144C79.7423 248.48 79.4562 248.489 79.0482 248.286C79.8961 250.082 80.4404 251.902 79.7423 252.305C78.1164 253.243 73.4124 252.609 73.4124 249.325C73.4124 246.041 72.2204 240.981 71.3809 236.65C70.7388 233.339 69.2905 219.996 69.2905 219.058C69.2905 218.119 69.6962 200.07 73.4124 196.083C76.3853 192.893 78.1939 204.671 79.7423 207.564Z" fill="#F0C8C7"/>
<path d="M130.18 167.484C129.118 168.193 126.788 170.586 125.756 171.695C126.345 174.65 128.056 180.605 130.18 180.782C132.834 181.004 137.258 169.922 138.586 169.478C139.913 169.035 141.682 154.185 142.567 153.52C143.452 152.855 145.001 151.747 145.885 149.53C146.77 147.314 143.01 145.541 142.567 145.097C142.125 144.654 144.558 141.551 143.673 140.443C142.788 139.335 142.125 143.546 140.798 143.989C139.471 144.432 138.364 147.979 138.586 149.752C138.807 151.525 137.258 154.185 135.71 157.288C132.613 161.277 131.507 166.597 130.18 167.484Z" fill="#F0C8C7"/>
<path d="M93.278 173.832C96.1257 175.156 102.868 177.011 108.271 173.832C115.026 169.859 124.562 172.243 126.946 169.859C129.33 167.475 133.7 181.58 131.714 184.361C129.727 187.143 120.787 187.143 120.787 195.288C120.787 203.433 122.774 238.2 122.774 241.577C122.774 244.954 84.8287 247.934 82.8421 246.544C81.1558 245.363 84.0496 217.989 83.5052 202.692C82.6466 205.33 80.9842 207.643 80.4581 208.797C76.9481 208.003 69.7302 205.936 68.9355 204.029C67.9422 201.645 75.0941 179.593 80.4581 179.593C84.1394 178.004 90.894 175.752 93.278 173.832Z" fill="white"/>
<path d="M113.041 159.33C113.041 169.859 107.256 169.859 101.66 169.859C96.0642 169.859 91.5283 161.412 91.5283 155.158C91.5283 148.904 96.0642 143.834 101.66 143.834C112.066 143.834 113.041 153.076 113.041 159.33Z" fill="#F0C8C7"/>
<path d="M106.882 155.356C108.192 156.012 111.205 153.252 112 151C109 141.5 97.9418 142.443 93.8806 147.186C87.5667 154.562 93.6764 164.892 95.4644 166.68C97.2524 168.468 104.802 162.31 104.404 161.316C104.007 160.323 103.703 153.767 106.882 155.356Z" fill="#573D3D"/>
<path d="M426.721 164.18C425.139 162.756 424.877 157.783 424.941 155.475H415.246C415.091 159.115 412.937 162.796 411.884 164.18C417.491 164.774 428.306 165.605 426.721 164.18Z" fill="#F0C8C7"/>
<path d="M385.715 173.038C386.51 176.812 386.669 180.878 387.304 182.573C386.164 185.029 385.318 187.341 383.53 183.765C382.203 181.111 380.867 180.723 380.351 176.415C379.834 172.107 385.111 170.159 385.715 173.038Z" fill="#F0C8C7"/>
<path d="M427.211 239.008C428.956 237.427 429.623 233.278 430.12 231.537C432.5 230.243 436.529 226.575 436.175 230.253C435.889 233.207 436.068 237.876 433.914 241.643C431.761 245.41 425.034 240.984 427.211 239.008Z" fill="#F0C8C7"/>
<path d="M435.978 234.226C448.006 186.744 439.805 172.104 435.517 170.654C432.196 173.661 429.625 212.256 426.526 231.249C427.515 232.238 429.331 234.226 435.978 234.226Z" fill="#F0C8C7"/>
<path d="M436.574 325.016C444.882 317.499 441.529 309.724 438.958 310.911L429.096 317.113C429.227 320.147 427.733 324.847 429.096 326.208C430.284 327.396 433.991 328.99 436.574 325.016Z" fill="#383C41"/>
<path d="M410.893 326.016C412.352 326.016 412.081 320.015 412.081 317.707C409.376 317.377 408.156 314.844 406.574 314.686C404.596 314.488 396.84 311.323 396.84 314.686C396.84 318.049 402.005 326.016 410.893 326.016Z" fill="#383C41"/>
<path d="M398.828 217.4H431.866C431.866 226.07 434.834 253.298 434.834 267.404C434.834 290.322 438.844 312.567 439.888 316.124C438.108 320.279 435.16 321.233 429.025 319.057C425.859 308.571 418.631 239.59 415.246 238.371C411.479 238.371 414.455 316.124 411.885 318.696C409.314 321.268 406.179 319.851 403.135 316.124C401.959 304.81 398.828 288.661 400.108 267.404C397.374 248.53 398.828 229.19 398.828 217.4Z" fill="#5D4AFF"/>
<path d="M387.293 181.51C388.683 187.47 391.067 191.245 388.683 193.629C389.887 188.265 399.352 173.444 402.53 169.789C405.709 166.133 399.61 182.636 401.001 185.086C401.267 187.735 400.007 195.019 389.844 204.401C384.849 205.991 383.717 189.258 382.723 182.702C380.824 179.062 386.502 184.016 387.293 181.51Z" fill="#F0C8C7"/>
<path d="M412.933 162.202C417.208 164.893 423.407 163.323 425.846 162.202C433.249 163.303 438.593 166.879 440.881 171.25C442.963 175.222 440.77 184.36 438.593 190.889C436.415 197.418 434.437 224.127 434.437 229.073C434.437 237.185 397.441 230.656 397.044 223.929C395.733 221.777 401.148 192.308 401.148 190.889C399.36 190.889 395.188 186.149 391.811 183.964C397.044 165.488 406.047 162.834 412.933 162.202Z" fill="white"/>
<path d="M409.313 148.353C409.313 154.581 413.433 161.015 419.004 161.015C424.578 161.015 429.688 153.394 429.688 147.166C429.688 140.938 423.788 136.284 418.213 136.284C412.643 136.284 409.313 142.125 409.313 148.353Z" fill="#573D3D"/>
<path d="M444.456 193.699C446.681 179.236 441.674 170.852 438.893 168.468C438.365 174.428 437.304 187.818 437.304 193.699C439.688 195.089 442.072 193.699 444.456 193.699Z" fill="white"/>
<path d="M386.709 175.628C385.895 175.47 385.863 177.679 385.946 178.804L387.472 183.567C387.555 180.987 387.524 175.787 386.709 175.628Z" fill="#F0C8C7"/>
</svg>
