<svg width="160" height="37" viewBox="0 0 160 37" fill="none" xmlns="http://www.w3.org/2000/svg">
<path d="M157.608 0L65.5208 0C64.1998 0 63.1289 1.07634 63.1289 2.40406V33.8973C63.1289 35.225 64.1998 36.3013 65.5208 36.3013L157.608 36.3013C158.929 36.3013 160 35.225 160 33.8973V2.40406C160 1.07634 158.929 0 157.608 0Z" fill="#5D4FFF"/>
<path d="M71.6183 29.7201H75.0396C73.0879 26.2582 72.2612 22.7964 72.2612 18.9191C72.2612 15.0418 73.0879 11.58 75.0396 8.11815H71.6183C69.7813 10.8645 68.748 14.6726 68.748 18.9191C68.748 23.1657 69.7813 26.9275 71.6183 29.7201ZM84.2342 12.6416C82.581 12.6416 81.2492 13.1724 80.3537 14.2572V12.8263H76.9323V29.7201H80.5144V23.9273C81.4329 24.9427 82.6958 25.4274 84.2342 25.4274C87.7015 25.4274 90.388 22.9349 90.388 19.0345C90.388 15.1342 87.7015 12.6416 84.2342 12.6416ZM83.6143 22.4733C81.8232 22.4733 80.4685 21.1809 80.4685 19.0345C80.4685 16.8882 81.8232 15.5957 83.6143 15.5957C85.4053 15.5957 86.76 16.8882 86.76 19.0345C86.76 21.1809 85.4053 22.4733 83.6143 22.4733ZM94.5769 11.0953C95.9087 11.0953 96.8042 10.2183 96.8042 9.01823C96.8042 7.91043 95.9087 7.07959 94.5769 7.07959C93.2451 7.07959 92.3496 7.95659 92.3496 9.08746C92.3496 10.2183 93.2451 11.0953 94.5769 11.0953ZM92.7859 25.2428H96.368V12.8263H92.7859V25.2428ZM99.6924 25.2428L103.275 25.2428V8.11815H99.6924V25.2428ZM106.599 25.2428H110.181V8.11815H106.599V25.2428ZM119.384 25.4274C123.31 25.4274 126.158 22.7733 126.158 19.0345C126.158 15.2957 123.31 12.6416 119.384 12.6416C115.457 12.6416 112.587 15.2957 112.587 19.0345C112.587 22.7733 115.457 25.4274 119.384 25.4274ZM119.384 22.4733C117.593 22.4733 116.215 21.1809 116.215 19.0345C116.215 16.8882 117.593 15.5957 119.384 15.5957C121.175 15.5957 122.53 16.8882 122.53 19.0345C122.53 21.1809 121.175 22.4733 119.384 22.4733ZM144.886 12.8263L141.878 21.227L138.939 12.8263H135.908L132.877 21.227L129.961 12.8263H126.585L131.04 25.2428H134.484L137.354 17.5344L140.133 25.2428H143.577L148.055 12.8263H144.886ZM151.718 29.7201C153.6 26.9275 154.611 23.1657 154.611 18.9191C154.611 14.6726 153.6 10.8645 151.718 8.11815L148.296 8.11815C150.271 11.58 151.098 15.0418 151.098 18.9191C151.098 22.7964 150.271 26.2582 148.296 29.7201H151.718Z" fill="white"/>
<path d="M6.8886 25.4272C9.4833 25.4272 11.5269 24.2732 12.4224 22.2884L9.64403 20.7652C8.97814 21.9653 7.99077 22.4731 6.86563 22.4731C5.05164 22.4731 3.62799 21.2037 3.62799 19.0343C3.62799 16.8649 5.05164 15.5955 6.86563 15.5955C7.99077 15.5955 8.97814 16.1263 9.64403 17.3034L12.4224 15.8032C11.5269 13.7723 9.4833 12.6414 6.8886 12.6414C2.87025 12.6414 0 15.2955 0 19.0343C0 22.7731 2.87025 25.4272 6.8886 25.4272ZM20.2062 25.4272C24.1328 25.4272 26.9801 22.7731 26.9801 19.0343C26.9801 15.2955 24.1328 12.6414 20.2062 12.6414C16.2797 12.6414 13.4094 15.2955 13.4094 19.0343C13.4094 22.7731 16.2797 25.4272 20.2062 25.4272ZM20.2062 22.4731C18.4152 22.4731 17.0374 21.1806 17.0374 19.0343C17.0374 16.8879 18.4152 15.5955 20.2062 15.5955C21.9972 15.5955 23.3521 16.8879 23.3521 19.0343C23.3521 21.1806 21.9972 22.4731 20.2062 22.4731ZM38.3755 8.11792V14.1415C37.4799 13.1261 36.1941 12.6414 34.6786 12.6414C31.1884 12.6414 28.5018 15.1339 28.5018 19.0343C28.5018 22.9346 31.1884 25.4272 34.6786 25.4272C36.3318 25.4272 37.6407 24.8964 38.5362 23.8116V25.2425H41.9575V8.11792H38.3755ZM35.2985 22.4731C33.5075 22.4731 32.1298 21.1806 32.1298 19.0343C32.1298 16.8879 33.5075 15.5955 35.2985 15.5955C37.0666 15.5955 38.4443 16.8879 38.4443 19.0343C38.4443 21.1806 37.0666 22.4731 35.2985 22.4731ZM57.3739 19.0804C57.3739 15.0878 54.5725 12.6414 50.9445 12.6414C47.1787 12.6414 44.3544 15.3186 44.3544 19.0343C44.3544 22.7269 47.1328 25.4272 51.4037 25.4272C53.6311 25.4272 55.3532 24.7348 56.5013 23.4193L54.5955 21.3422C53.7459 22.15 52.8044 22.5423 51.4956 22.5423C49.6127 22.5423 48.3039 21.5961 47.9594 20.0498L57.305 20.0498C57.3279 19.7497 57.3739 19.3574 57.3739 19.0804ZM50.9675 15.3647C52.5748 15.3647 53.7459 16.3802 53.9985 17.9496L47.9135 17.9496C48.1661 16.3571 49.3372 15.3647 50.9675 15.3647Z" fill="#383C41"/>
</svg>
