<svg width="82" height="78" viewBox="0 0 82 78" fill="none" xmlns="http://www.w3.org/2000/svg">
<path d="M56.8173 54.3675C59.8434 54.0545 62.1391 51.4457 62.0348 48.3151C61.9304 45.1845 59.3217 42.6801 56.1912 42.6801H55.9825C52.7477 42.7844 50.2434 45.4976 50.3477 48.7325C50.4521 50.2978 51.0782 51.6544 52.0173 52.5935C48.4695 59.5851 43.0433 64.6984 34.9042 68.9768C29.3737 71.8987 23.6345 72.9422 17.8954 72.2118C13.1997 71.5856 9.54749 69.4986 7.25182 66.055C3.91267 60.9417 3.59963 55.411 6.41704 49.8804C8.39966 45.915 11.5301 42.9931 13.5127 41.5322C13.0953 40.1756 12.4692 37.8799 12.1562 36.2102C-2.97432 47.1672 -1.4091 61.9852 3.18223 68.9768C6.62573 74.1945 13.6171 77.4294 21.3389 77.4294C23.4258 77.4294 25.5128 77.2207 27.5998 76.6989C40.9564 74.0901 51.0782 66.1593 56.8173 54.3675ZM75.1827 41.4278C67.2522 32.1405 55.5652 27.0272 42.2086 27.0272H40.539C39.5998 25.1489 37.6172 23.8967 35.4259 23.8967H35.2172C31.9824 24.001 29.478 26.7142 29.5824 29.9491C29.6867 33.0797 32.2955 35.5841 35.4259 35.5841H35.6346C37.9303 35.4798 39.9129 34.0188 40.7477 32.0361H42.6259C50.5564 32.0361 58.0695 34.3319 64.8522 38.819C70.0696 42.2627 73.8261 46.7498 75.9131 52.1761C77.687 56.5589 77.5827 60.8374 75.7044 64.4897C72.7826 70.0204 67.8783 73.0466 61.4087 73.0466C57.2347 73.0466 53.2695 71.7943 51.1825 70.8552C50.0347 71.8987 47.9477 73.5683 46.4868 74.6119C50.9738 76.6989 55.5652 77.8468 59.9478 77.8468C69.9652 77.8468 77.374 72.3161 80.1914 66.7854C83.2175 60.733 83.0088 50.2978 75.1827 41.4278ZM22.1737 56.1415C22.278 59.2721 24.8867 61.7765 28.0172 61.7765H28.2259C31.4607 61.6722 33.965 58.959 33.8607 55.7241C33.7563 52.5935 31.1476 50.0891 28.0172 50.0891H27.8085C27.5998 50.0891 27.2867 50.0891 27.078 50.1934C22.7997 43.0975 21.0258 35.3754 21.6519 27.0272C22.0693 20.7661 24.1563 15.3398 27.8085 10.8526C30.8346 6.9916 36.6781 5.11326 40.6433 5.00891C51.7043 4.8002 56.3999 18.5747 56.713 24.1054C58.0695 24.4184 60.3652 25.1489 61.9304 25.6707C60.6782 8.76559 50.2434 0 40.2259 0C30.8346 0 22.1737 6.7829 18.7302 16.8007C13.9301 30.1578 17.0606 42.9931 22.9041 53.1153C22.3823 53.8458 22.0693 54.9936 22.1737 56.1415Z" fill="#001220" fill-opacity="0.2"/>
</svg>
